<svg xmlns="http://www.w3.org/2000/svg" xmlns:xlink="http://www.w3.org/1999/xlink" version="1.1" x="0px" y="0px" viewBox="0 0 241.637 296.48" style="enable-background:new 0 0 241.637 237.184;" xml:space="preserve"><g><path d="M141.613,224.82c0,6.83,5.537,12.363,12.363,12.363c6.828,0,12.365-5.533,12.365-12.363v-12.609   c-8.763-0.694-17.095-2.93-24.729-6.441V224.82z"/><path d="M170.977,212.434v12.387c0,6.83,5.537,12.363,12.363,12.363c6.828,0,12.365-5.533,12.365-12.363v-16.238   c-7.388,2.504-15.291,3.883-23.514,3.883C171.784,212.465,171.382,212.44,170.977,212.434z"/><path d="M149.572,61.914c1.24,1.895,2.369,3.982,3.411,6.226c6.127-1.662,12.563-2.566,19.208-2.566   c15.569,0,30.011,4.884,41.905,13.18c-1.876-6.609-4.229-11.712-6.866-15.74c-3.283-4.986-7.129-8.183-10.678-9.954   c-2.322-1.172-4.451-1.723-6.146-1.966c-0.766-0.253-1.58-0.395-2.43-0.395h-38.635c-0.85,0-1.664,0.143-2.43,0.396   c-1.643,0.235-3.694,0.764-5.936,1.862C143.61,54.751,146.705,57.557,149.572,61.914z"/><circle cx="168.658" cy="22.5" r="22.5"/><path d="M68.492,148.619c-0.205,0.011-0.4,0.018-0.598,0.018c-5.283,0-9.664-4.136-9.973-9.414   c-0.396-6.736-0.6-13.222-0.602-19.276c0.016-20.928,2.311-36.884,7.018-48.783c3.188-8.119,7.861-14.453,13.351-18.207   c-2.236-1.098-4.287-1.628-5.931-1.863c-0.764-0.253-1.578-0.395-2.428-0.395H30.695c-0.85,0-1.664,0.143-2.43,0.396   c-1.697,0.242-3.826,0.792-6.15,1.964c-5.379,2.666-11.18,8.503-15.236,18.841C2.772,82.277,0.016,97.284,0,119.945   c0.002,5.856,0.189,12.225,0.598,19.16c0.25,4.25,3.773,7.531,7.977,7.531c0.158,0,0.316-0.004,0.477-0.014   c4.412-0.261,7.777-4.046,7.517-8.456c-0.391-6.651-0.568-12.706-0.566-18.222c-0.035-24.219,3.496-37.823,6.965-44.923V224.82   c0,6.83,5.537,12.363,12.363,12.363c6.828,0,12.365-5.533,12.365-12.363v-90.271h4.635v90.271c0,6.83,5.537,12.363,12.363,12.363   c6.828,0,12.365-5.533,12.365-12.363v-82.191C75.597,145.964,72.368,148.39,68.492,148.619z"/><circle cx="50.012" cy="22.5" r="22.5"/><path d="M111.65,180.536v44.284c0,6.83,5.537,12.363,12.363,12.363c6.828,0,12.365-5.533,12.365-12.363v-21.713   C126.508,197.569,118.039,189.824,111.65,180.536z"/><path d="M98.748,139.02c0-33.151,22.084-61.231,52.308-70.332c-0.993-2.1-2.047-3.984-3.154-5.675   c-3.283-4.986-7.127-8.183-10.678-9.954c-2.32-1.172-4.449-1.723-6.146-1.966c-0.764-0.253-1.578-0.395-2.428-0.395H90.016   c-0.85,0-1.664,0.143-2.43,0.396c-1.697,0.242-3.826,0.792-6.15,1.964c-5.379,2.666-11.18,8.503-15.236,18.841   c-4.107,10.378-6.863,25.385-6.879,48.046c0.002,5.856,0.189,12.225,0.598,19.16c0.25,4.25,3.774,7.531,7.977,7.531   c0.158,0,0.316-0.004,0.477-0.014c4.412-0.261,7.777-4.046,7.518-8.456c-0.391-6.651-0.568-12.706-0.566-18.222   c-0.035-24.219,3.496-37.823,6.965-44.923V224.82c0,6.83,5.537,12.363,12.363,12.363c6.828,0,12.365-5.533,12.365-12.363v-52.01   C101.746,162.687,98.748,151.201,98.748,139.02z"/><circle cx="109.332" cy="22.5" r="22.5"/><path d="M172.191,208.466c38.354,0,69.445-31.092,69.445-69.445s-31.092-69.445-69.445-69.445s-69.445,31.092-69.445,69.445   S133.838,208.466,172.191,208.466z M119.414,139.021c0-29.102,23.676-52.779,52.776-52.779c29.102,0,52.779,23.677,52.779,52.779   c0,29.101-23.677,52.777-52.779,52.777C143.09,191.799,119.414,168.122,119.414,139.021z"/><polygon points="180.525,173.743 180.525,147.353 206.914,147.353 206.914,130.686 180.525,130.686 180.525,104.298    163.858,104.298 163.858,130.686 137.469,130.686 137.469,147.353 163.858,147.353 163.858,173.743  "/></g></svg>