<svg xmlns="http://www.w3.org/2000/svg" data-name="Layer 1" viewBox="0 0 100 125" x="0px" y="0px"><title>windy_road_line_tall</title><path d="M66.8,64.28C67,54.36,77,47.71,76.6,37.22,76.19,25.32,63,23.62,63,14.9c0-3.71,2.46-8.48,12-13.9H70.08c-6.38,3.1-11,6.37-13.21,11.39s8.23,11.73,8,20.26c-.29,13-20.23,17.45-21.79,33.8-.62,6.49,3,13.72,16.6,32.56H99C74.78,81,66.62,73,66.8,64.28Z"/><path d="M47.79,13.7c-.7,7,5.64,10.7,4.77,17C51.1,41.31,26.15,49,19.37,55.65,4.62,70.1,2.52,81.06,1,99H53C39.39,80.16,38.34,72.21,39,65.72c1.56-16.35,24.17-20.09,24.46-33.08.19-8.53-9.93-15.28-7.71-20.38S63.87,2.42,70.08,1H65.15C57.36,3.19,48.8,3.64,47.79,13.7Z"/></svg>